<svg width="208" height="208" viewBox="0 0 208 208" fill="none" xmlns="http://www.w3.org/2000/svg">
<g clip-path="url(#clip0_749_3)">
<mask id="mask0_749_3" style="mask-type:luminance" maskUnits="userSpaceOnUse" x="0" y="0" width="208" height="208">
<path d="M131.955 0H131.581H111.758H76.0448C13.416 0 0 13.4368 0 76.0448V131.955C0 194.584 13.4368 208 76.0448 208H111.758H131.581H131.955C194.584 208 208 194.563 208 131.955V76.0448C208 13.416 194.563 0 131.955 0Z" fill="white"/>
</mask>
<g mask="url(#mask0_749_3)">
<rect width="208" height="208" fill="#503EF2"/>
</g>
<path fill-rule="evenodd" clip-rule="evenodd" d="M106.196 182.836C90.5943 182.836 83.344 180.559 70.7414 171.448C62.7699 181.698 37.5267 189.707 36.4259 176.004C36.4259 165.717 34.1483 157.024 31.567 147.534C28.4923 135.842 25 122.822 25 103.956C25 58.898 61.9727 25 105.778 25C149.622 25 183.975 60.5682 183.975 104.374C184.122 147.502 149.323 182.606 106.196 182.836ZM106.841 63.9466C85.5077 62.8458 68.8814 77.6121 65.1993 100.768C62.1625 119.937 67.5528 143.282 72.1459 144.497C74.3476 145.028 79.8897 140.549 83.344 137.095C89.0559 141.041 95.7074 143.411 102.628 143.966C124.732 145.029 143.62 128.2 145.104 106.12C145.968 83.9925 128.949 65.2508 106.841 63.9846L106.841 63.9466Z" fill="white"/>
</g>
<defs>
<clipPath id="clip0_749_3">
<rect width="208" height="208" fill="white"/>
</clipPath>
</defs>
</svg>
